<?xml version="1.0" standalone="no"?>
<!DOCTYPE svg PUBLIC "-//W3C//DTD SVG 20010904//EN"
 "http://www.w3.org/TR/2001/REC-SVG-20010904/DTD/svg10.dtd">
<svg version="1.0" xmlns="http://www.w3.org/2000/svg"
 width="300.000000pt" height="300.000000pt" viewBox="0 0 300.000000 300.000000"
 preserveAspectRatio="xMidYMid meet">
<metadata>
Created by potrace 1.11, written by Peter Selinger 2001-2013
</metadata>
<g transform="translate(0.000000,300.000000) scale(0.100000,-0.100000)"
fill="#000000" stroke="none">
<path d="M1402 2588 c-50 -51 -109 -113 -132 -138 -23 -25 -107 -112 -185
-195 -79 -82 -169 -177 -200 -210 -110 -116 -371 -389 -430 -450 -33 -34 -114
-119 -180 -189 -66 -70 -153 -161 -192 -203 -40 -41 -73 -79 -73 -84 0 -5 108
-9 248 -9 228 0 250 2 268 18 10 11 93 97 184 192 91 95 188 196 215 225 28
28 111 116 185 195 263 278 381 400 389 400 6 0 59 -54 309 -319 76 -80 162
-170 192 -202 30 -31 127 -132 215 -224 88 -92 186 -194 217 -226 l57 -59 251
0 c153 0 250 4 248 9 -2 8 -89 100 -338 362 -229 240 -354 370 -400 419 -30
31 -131 137 -225 236 -93 98 -220 230 -281 294 -60 63 -139 145 -174 183 -35
37 -66 67 -70 67 -4 0 -48 -42 -98 -92z"/>
<path d="M1320 1631 c-14 -1 -28 -8 -31 -13 -9 -14 -6 -165 3 -174 10 -9 142
-11 166 -3 18 7 20 18 20 94 0 57 -3 88 -11 90 -17 7 -117 11 -147 6z"/>
<path d="M1524 1618 c-12 -18 -11 -169 0 -176 6 -3 45 -7 88 -8 99 -4 105 3
98 112 l-5 79 -87 3 c-61 2 -89 -1 -94 -10z"/>
<path d="M1297 1395 c-9 -7 -13 -34 -12 -93 1 -45 5 -85 8 -88 8 -8 175 -9
183 -1 12 11 11 157 -1 174 -13 18 -156 25 -178 8z"/>
<path d="M1537 1402 c-11 -2 -17 -14 -18 -35 0 -18 -1 -56 -3 -85 -1 -29 1
-58 5 -64 9 -15 167 -17 179 -3 12 15 15 164 4 175 -9 9 -136 18 -167 12z"/>
</g>
</svg>
